<svg width="20" height="20" fill="none" xmlns="http://www.w3.org/2000/svg"><path d="M16.429 14.85a.275.275 0 01-.268.267H3.839a.275.275 0 01-.268-.268V8.421c.176.2.369.385.578.552a112.81 112.81 0 013.566 2.83c.628.527 1.406 1.171 2.277 1.171h.016c.87 0 1.65-.644 2.277-1.172a114.78 114.78 0 013.566-2.829c.21-.167.402-.352.578-.552v6.428zm0-8.798c0 .711-.687 1.64-1.23 2.067a520.296 520.296 0 00-3.357 2.654c-.444.36-1.248 1.13-1.834 1.13h-.016c-.586 0-1.39-.77-1.834-1.13a518.373 518.373 0 00-3.356-2.654c-.753-.594-1.23-1.423-1.23-2.377 0-.142.125-.268.267-.268h12.322c.318 0 .268.368.268.578zm1.071-.31c0-.737-.603-1.34-1.34-1.34H3.84c-.737 0-1.34.603-1.34 1.34v9.107c0 .737.603 1.34 1.34 1.34h12.32c.737 0 1.34-.603 1.34-1.34V5.742z" fill="#3E9CDC"/></svg>