<svg xmlns="http://www.w3.org/2000/svg" xmlns:xlink="http://www.w3.org/1999/xlink"><symbol viewBox="0 0 800 800" id="icon-magnifying"><path d="M789.723 741.918L609.462 561.494c48.613-59.217 77.651-135.073 77.651-217.618C687.113 154.153 533.279.32 343.556.32 153.834.32 0 154.153 0 343.876c0 189.723 153.834 343.556 343.556 343.556 82.871 0 158.891-29.363 218.271-78.303L742.088 789.39c21.044 19.25 40.783 6.851 47.635 0 13.703-13.54 13.703-33.932 0-47.472zM67.047 343.876c0-152.692 123.818-276.509 276.509-276.509 152.692 0 276.672 123.817 276.672 276.509S496.411 620.385 343.719 620.385c-152.691 0-276.672-123.817-276.672-276.509z"/></symbol></svg>