<?xml version="1.0" standalone="no"?>
<!DOCTYPE svg PUBLIC "-//W3C//DTD SVG 20010904//EN"
 "http://www.w3.org/TR/2001/REC-SVG-20010904/DTD/svg10.dtd">
<svg version="1.0" xmlns="http://www.w3.org/2000/svg"
 width="310.000000pt" height="310.000000pt" viewBox="0 0 310.000000 310.000000"
 preserveAspectRatio="xMidYMid meet">
<metadata>
Created by potrace 1.14, written by Peter Selinger 2001-2017
</metadata>
<g transform="translate(0.000000,310.000000) scale(0.100000,-0.100000)"
fill="#000000" stroke="none">
<path d="M277 1882 c-21 -23 -22 -46 -1 -66 12 -13 39 -16 125 -16 l109 0 0
-280 c0 -267 1 -281 20 -300 24 -24 57 -26 88 -4 22 15 22 17 22 300 l0 284
106 0 c58 0 114 5 125 10 26 14 26 66 0 80 -12 6 -126 10 -299 10 -257 0 -280
-1 -295 -18z"/>
<path d="M1032 1880 c-57 -35 -62 -62 -62 -325 0 -339 5 -345 242 -345 196 0
280 31 355 128 47 62 66 137 61 241 -8 161 -84 262 -228 305 -38 11 -95 16
-194 16 -124 0 -145 -3 -174 -20z m343 -109 c79 -36 115 -103 115 -216 0 -80
-15 -128 -51 -170 -46 -52 -96 -66 -219 -63 l-105 3 -3 220 c-1 121 0 225 2
232 9 22 211 17 261 -6z"/>
<path d="M1897 1700 c-109 -28 -168 -89 -186 -194 -25 -141 35 -250 159 -291
82 -27 211 -18 286 21 68 35 82 61 53 98 -24 31 -44 32 -84 6 -101 -67 -285
-34 -285 51 0 18 11 19 168 19 148 0 171 2 199 20 84 51 33 197 -86 249 -56
24 -169 35 -224 21z m156 -111 c38 -10 74 -50 62 -69 -7 -12 -275 -14 -275 -2
0 4 7 18 16 31 33 46 115 63 197 40z"/>
<path d="M2323 1695 c-25 -10 -33 -20 -33 -39 0 -36 115 -361 140 -397 30 -41
70 -59 132 -59 60 0 106 23 134 65 24 37 134 354 134 386 0 15 -7 32 -15 39
-19 16 -80 17 -99 1 -8 -7 -40 -88 -71 -180 -31 -93 -62 -177 -70 -187 -15
-19 -15 -19 -30 0 -8 10 -39 94 -70 187 -31 92 -62 172 -68 177 -23 18 -52 21
-84 7z"/>
</g>
</svg>
