<svg viewBox="0 0 800 800">
    <path d="M789.723 741.918L609.462 561.494C658.075 502.277 687.113 426.421 687.113 343.876C687.113 154.153 533.279 0.319763 343.556 0.319763C153.834 0.319763 0 154.153 0 343.876C0 533.599 153.834 687.432 343.556 687.432C426.427 687.432 502.447 658.069 561.827 609.129L742.088 789.39C763.132 808.64 782.871 796.241 789.723 789.39C803.426 775.85 803.426 755.458 789.723 741.918ZM67.0473 343.876C67.0473 191.184 190.865 67.3671 343.556 67.3671C496.248 67.3671 620.228 191.184 620.228 343.876C620.228 496.568 496.411 620.385 343.719 620.385C191.028 620.385 67.0473 496.568 67.0473 343.876Z"/>
</svg>
